<?xml version="1.0" standalone="no"?>
<!DOCTYPE svg PUBLIC "-//W3C//DTD SVG 20010904//EN"
 "http://www.w3.org/TR/2001/REC-SVG-20010904/DTD/svg10.dtd">
<svg version="1.0" xmlns="http://www.w3.org/2000/svg"
 width="880.000000pt" height="880.000000pt" viewBox="0 0 880.000000 880.000000"
 preserveAspectRatio="xMidYMid meet">

<g transform="translate(0.000000,880.000000) scale(0.100000,-0.100000)"
fill="#000000" stroke="none">
<path d="M0 4400 l0 -4400 4400 0 4400 0 0 4400 0 4400 -4400 0 -4400 0 0
-4400z m3112 2898 c-15 -15 -134 -21 -192 -10 -39 8 -31 10 59 10 57 0 106 3
109 6 3 3 12 6 21 6 11 0 12 -3 3 -12z m-152 -43 c0 -9 -9 -15 -21 -15 -12 0
-23 -8 -26 -20 -3 -11 -8 -20 -12 -20 -8 0 -51 55 -51 65 0 3 25 5 55 5 42 0
55 -3 55 -15z m106 -4 c-10 -11 -25 -16 -40 -14 -17 4 -25 -1 -29 -16 -3 -12
-10 -21 -15 -21 -7 0 -7 8 1 23 23 43 29 47 64 47 35 0 35 -1 19 -19z m2884
13 c0 -3 -11 -19 -25 -36 -16 -18 -25 -24 -25 -15 0 9 6 17 13 20 8 3 6 10 -8
21 -19 15 -19 15 13 16 17 0 32 -3 32 -6z m-70 -14 c0 -5 -7 -10 -15 -10 -8 0
-15 5 -15 10 0 6 7 10 15 10 8 0 15 -4 15 -10z m-2535 -240 c-19 -20 -31 -26
-36 -19 -4 8 -11 4 -19 -11 -11 -20 -10 -22 4 -17 9 4 16 5 16 4 0 -1 -48 -50
-107 -107 -59 -58 -89 -85 -65 -60 62 67 51 73 -15 10 -32 -30 -4 1 62 70 66
68 125 125 130 125 6 1 9 7 7 14 -1 7 2 10 7 7 5 -4 12 -2 16 4 3 5 11 10 17
10 7 0 -1 -14 -17 -30z m1325 12 c38 -18 129 -100 131 -117 1 -5 40 -46 87
-90 109 -103 103 -83 -10 34 -49 49 -88 93 -88 98 0 4 48 -40 107 -97 59 -58
99 -95 89 -82 -39 46 1 18 44 -32 30 -34 34 -41 12 -22 -39 36 -43 23 -5 -16
22 -23 24 -28 10 -34 -9 -3 -22 -4 -29 -1 -7 3 -3 6 10 6 23 1 23 2 -9 36 -34
36 -56 40 -24 4 17 -17 17 -22 5 -29 -27 -18 -46 -10 -86 33 -22 23 -97 102
-167 176 -146 154 -157 172 -77 133z m785 8 c4 -6 11 -8 16 -4 5 3 8 0 7 -7
-2 -7 2 -13 7 -14 6 0 66 -59 135 -130 68 -72 96 -103 62 -70 -73 70 -83 63
-15 -10 26 -27 -1 -3 -60 55 -59 58 -103 106 -97 108 6 2 6 11 -1 24 -8 14
-13 17 -18 9 -5 -7 -16 -1 -34 19 -15 16 -23 30 -18 30 6 0 13 -5 16 -10z
m-1306 -31 c-9 -18 -75 -89 -280 -303 -26 -28 -30 -29 -65 -18 -21 6 -42 8
-48 4 -6 -3 0 -9 14 -13 23 -6 23 -7 3 -8 -28 -1 -37 13 -18 29 8 7 15 17 15
23 0 5 -10 2 -22 -9 -13 -10 6 14 41 54 35 40 66 70 69 67 3 -3 -12 -24 -33
-48 -22 -23 11 7 73 68 61 60 112 104 112 98 0 -6 -4 -13 -8 -15 -5 -1 -26
-23 -48 -48 -37 -43 -37 -43 -6 -17 19 15 37 27 40 27 4 0 12 10 17 23 6 12
25 30 44 39 18 9 40 26 48 38 8 12 21 19 29 16 7 -3 16 -1 19 4 12 19 15 9 4
-11z m-889 -22 c0 -2 -19 -21 -42 -42 l-43 -40 40 43 c36 39 45 47 45 39z
m104 -121 c-73 -77 -123 -122 -132 -119 -14 6 -4 18 148 176 35 37 73 67 83
67 13 0 -18 -39 -99 -124z m2105 7 c73 -78 106 -120 98 -125 -8 -5 -52 35
-122 109 -60 64 -111 120 -113 124 -2 5 3 9 11 9 9 0 65 -53 126 -117z m31 40
l75 -78 -77 75 c-72 69 -83 80 -75 80 1 0 36 -35 77 -77z m-1992 0 c-37 -37
-69 -65 -72 -63 -7 9 109 130 124 130 8 0 -15 -30 -52 -67z m1806 5 c31 -34
54 -64 51 -67 -3 -3 -36 25 -73 62 -42 42 -61 67 -50 67 9 0 41 -28 72 -62z
m-1954 49 c0 -1 -30 -32 -67 -67 l-68 -65 65 68 c60 62 70 72 70 64z m271 -24
c-10 -16 -41 -48 -67 -73 l-48 -45 34 40 c42 50 93 105 98 105 2 0 -6 -12 -17
-27z m339 4 c0 -1 -24 -25 -52 -52 l-53 -50 50 53 c46 48 55 57 55 49z m915
-47 c27 -27 47 -50 44 -50 -3 0 -27 23 -54 50 -27 28 -47 50 -44 50 3 0 27
-22 54 -50z m-1205 30 c0 -5 -5 -10 -11 -10 -5 0 -7 5 -4 10 3 6 8 10 11 10 2
0 4 -4 4 -10z m1058 -121 c67 -70 122 -132 122 -137 0 -5 -42 -14 -92 -21
l-93 -11 -138 142 -137 143 -138 -143 -137 -142 -95 11 c-52 7 -97 14 -99 15
-2 2 54 64 125 137 l129 135 215 0 215 0 123 -129z m-1078 98 c0 -1 -30 -32
-67 -67 l-68 -65 65 68 c60 62 70 72 70 64z m1595 -47 c27 -27 47 -50 44 -50
-3 0 -27 23 -54 50 -27 28 -47 50 -44 50 3 0 27 -22 54 -50z m-2085 37 c0 -2
-12 -14 -27 -28 l-28 -24 24 28 c23 25 31 32 31 24z m400 -52 c-24 -25 -46
-45 -49 -45 -3 0 15 20 39 45 24 25 46 45 49 45 3 0 -15 -20 -39 -45z m1650
-10 c30 -30 52 -55 49 -55 -2 0 -29 25 -59 55 -30 30 -52 55 -49 55 2 0 29
-25 59 -55z m60 -32 c0 -8 -9 0 -50 45 l-45 47 48 -45 c26 -24 47 -45 47 -47z
m396 55 l29 -33 -32 29 c-31 28 -38 36 -30 36 2 0 16 -15 33 -32z m-708 -54
c-4 -3 -12 5 -18 18 -12 22 -12 22 6 6 10 -10 15 -20 12 -24z m-540 -4 c12
-16 22 -32 22 -35 0 -3 -22 -5 -50 -5 -27 0 -50 2 -50 5 0 9 43 65 50 65 3 0
16 -13 28 -30z m-1058 -25 c-24 -24 -46 -42 -49 -40 -6 7 70 85 83 85 6 0 -10
-20 -34 -45z m2075 5 c21 -22 36 -42 34 -45 -3 -2 -25 16 -49 40 -24 25 -40
45 -34 45 5 0 27 -18 49 -40z m-1965 7 c0 -2 -15 -16 -32 -33 l-33 -29 29 33
c28 30 36 37 36 29z m1876 -29 l29 -33 -32 29 c-31 28 -38 36 -30 36 2 0 16
-15 33 -32z m-1866 9 c0 -2 -10 -12 -22 -23 l-23 -19 19 23 c18 21 26 27 26
19z m1845 -17 c10 -11 16 -20 13 -20 -3 0 -13 9 -23 20 -10 11 -16 20 -13 20
3 0 13 -9 23 -20z m-1835 -4 c0 -2 -8 -10 -17 -17 -16 -13 -17 -12 -4 4 13 16
21 21 21 13z m1821 -13 c13 -16 12 -17 -3 -4 -10 7 -18 15 -18 17 0 8 8 3 21
-13z m-1022 -59 c-24 -24 -51 -44 -61 -44 -26 0 -22 10 23 56 29 30 47 40 61
36 17 -4 15 -9 -23 -48z m281 -36 c0 -22 -41 -3 -79 36 -37 37 -41 45 -25 48
18 4 104 -65 104 -84z m-1717 -113 c-98 -101 -185 -187 -193 -190 -8 -4 61 70
154 164 92 93 165 174 162 180 -4 6 -1 9 7 5 8 -3 17 2 20 10 4 9 11 16 17 16
7 0 -69 -83 -167 -185z m2948 160 c11 6 11 5 2 -5 -12 -14 -33 -6 -33 13 0 8
3 7 9 -2 5 -8 14 -10 22 -6z m-2084 -1 c-3 -3 -12 -4 -19 -1 -8 3 -5 6 6 6 11
1 17 -2 13 -5z m1370 0 c-3 -3 -12 -4 -19 -1 -8 3 -5 6 6 6 11 1 17 -2 13 -5z
m-1927 -12 c0 -4 -87 -94 -194 -200 -130 -131 -195 -189 -199 -179 -3 9 44 63
129 148 74 74 132 139 130 146 -3 7 1 10 7 7 7 -2 32 16 57 41 40 41 70 57 70
37z m2530 -37 c25 -25 50 -43 57 -41 6 3 10 0 7 -7 -2 -7 56 -72 130 -146 89
-89 132 -139 129 -150 -5 -18 43 -69 54 -57 4 4 98 -84 210 -196 l202 -202 37
17 c20 10 39 16 41 13 10 -9 -82 -43 -97 -35 -24 12 -840 830 -840 842 0 19
30 3 70 -38z m-2730 32 c0 -2 -15 -16 -32 -33 l-33 -29 29 33 c28 30 36 37 36
29z m2915 -47 c27 -27 47 -50 44 -50 -3 0 -27 23 -54 50 -27 28 -47 50 -44 50
3 0 27 -22 54 -50z m-2669 -2 c-50 -60 -259 -266 -255 -251 6 18 269 293 280
293 6 0 -6 -19 -25 -42z m2488 -100 c75 -78 136 -147 136 -152 0 -12 -192 176
-252 247 -82 97 -15 42 116 -95z m276 -23 c91 -91 161 -165 156 -165 -5 0 -74
66 -153 148 -161 164 -178 182 -172 182 2 0 78 -74 169 -165z m-2640 152 c0
-2 -19 -21 -42 -42 l-43 -40 40 43 c36 39 45 47 45 39z m2210 -84 c0 -8 -9 0
-50 45 l-45 47 48 -45 c26 -24 47 -45 47 -47z m-2190 74 c0 -2 -12 -14 -27
-28 l-28 -24 24 28 c23 25 31 32 31 24z m30 0 c0 -2 -15 -16 -32 -33 l-33 -29
29 33 c28 30 36 37 36 29z m2056 -29 l29 -33 -32 29 c-31 28 -38 36 -30 36 2
0 16 -15 33 -32z m24 7 c13 -14 21 -25 18 -25 -2 0 -15 11 -28 25 -13 14 -21
25 -18 25 2 0 15 -11 28 -25z m-1720 -15 c0 -10 -89 -107 -287 -312 -72 -75
-121 -118 -134 -118 -11 0 -17 5 -14 10 8 12 8 12 -33 1 -17 -5 -32 -7 -32 -3
0 4 41 48 92 99 51 51 89 95 86 98 -3 3 -50 -41 -104 -100 -54 -58 -105 -105
-113 -104 -9 0 -11 3 -5 5 6 3 80 74 164 159 85 85 156 152 159 150 3 -3 29
18 58 47 80 79 64 45 -19 -42 -40 -41 -60 -63 -43 -50 16 14 35 31 41 39 6 8
18 11 27 8 11 -4 14 -2 10 9 -8 22 34 63 60 58 19 -4 19 -3 4 4 -16 7 -17 10
-4 20 8 7 21 10 29 7 8 -3 21 1 28 10 14 17 30 20 30 5z m1371 -4 c16 0 23
-26 7 -26 -4 0 -8 -4 -8 -10 0 -16 30 -11 37 6 4 12 17 5 57 -35 29 -29 54
-49 57 -46 3 2 74 -65 159 -150 84 -85 158 -156 164 -159 6 -2 4 -5 -4 -5 -9
-1 -64 51 -124 114 -60 64 -111 113 -114 110 -3 -3 5 -16 17 -29 21 -23 21
-24 4 -41 -13 -13 -13 -17 -3 -13 9 4 41 -19 85 -61 l70 -66 -67 70 c-95 99
-85 106 12 10 72 -72 101 -109 68 -89 -19 12 -59 14 -52 3 4 -6 -3 -9 -17 -7
-15 2 -69 50 -143 128 -66 69 -157 164 -203 211 -46 47 -83 89 -83 93 0 4 15
4 33 0 17 -4 39 -8 48 -8z m-1186 -31 c119 -13 124 3 -67 -197 -95 -99 -195
-204 -223 -233 l-50 -54 -82 22 c-45 12 -85 26 -89 30 -4 4 51 67 122 140 72
72 168 171 214 220 52 55 90 86 99 83 9 -2 43 -7 76 -11z m1234 -206 c118
-121 210 -224 205 -228 -5 -4 -47 -18 -94 -30 l-85 -22 -30 38 c-28 36 -116
130 -319 340 l-88 92 33 6 c19 3 61 9 94 14 33 5 62 9 65 10 3 0 102 -98 219
-220z m331 196 c11 -13 15 -13 21 -3 5 7 9 9 9 3 0 -30 -17 -34 -40 -10 -13
14 -19 25 -13 25 6 0 16 -7 23 -15z m-2650 -8 c0 -1 -48 -50 -107 -107 l-108
-105 105 108 c97 99 110 112 110 104z m2730 -12 c7 -8 8 -15 2 -15 -5 0 -15 7
-22 15 -7 8 -8 15 -2 15 5 0 15 -7 22 -15z m-1433 -3 c9 -5 -30 -52 -120 -148
-73 -77 -150 -160 -173 -185 -31 -35 -45 -43 -63 -39 -20 4 -2 26 154 193 98
103 180 187 184 187 3 0 11 -4 18 -8z m708 -179 c156 -167 174 -189 154 -193
-18 -4 -32 4 -63 39 -23 25 -100 108 -173 185 -122 129 -139 155 -102 156 4 0
86 -84 184 -187z m1126 170 c13 -16 12 -17 -3 -4 -10 7 -18 15 -18 17 0 8 8 3
21 -13z m-410 -45 l33 -43 -37 34 c-33 31 -46 51 -33 51 2 0 19 -19 37 -42z
m474 -18 c21 -22 37 -40 34 -40 -3 0 -23 18 -44 40 -21 22 -37 40 -34 40 3 0
23 -18 44 -40z m-2795 27 c0 -2 -12 -14 -27 -28 l-26 -24 19 27 c16 23 34 36
34 25z m2880 -112 c19 -19 32 -35 29 -35 -3 0 -20 16 -39 35 -19 19 -32 35
-29 35 3 0 20 -16 39 -35z m-3225 -75 c-16 -16 -31 -28 -33 -25 -7 7 39 55 52
55 5 0 -3 -13 -19 -30z m3005 5 c13 -14 21 -27 18 -30 -2 -3 -17 9 -33 25 -16
17 -24 30 -19 30 6 0 21 -11 34 -25z m-3351 -252 c-213 -211 -239 -234 -239
-216 0 15 393 401 405 397 6 -3 20 4 30 16 10 11 20 20 22 20 2 0 -96 -98
-218 -217z m3831 42 c0 5 -12 23 -27 40 -16 17 -9 11 15 -12 24 -23 41 -47 38
-51 -7 -12 48 -64 59 -55 4 5 5 3 2 -3 -3 -6 24 -39 61 -75 36 -35 56 -52 43
-36 -14 15 -19 27 -13 27 18 0 43 -43 32 -54 -7 -7 -69 48 -195 174 -102 102
-185 189 -185 195 0 5 38 -28 85 -75 47 -47 85 -80 85 -75z m-3829 128 c-5
-10 -86 -94 -180 -188 -115 -114 -174 -166 -181 -159 -11 11 14 54 32 54 6 0
1 -11 -12 -25 -13 -14 -21 -25 -19 -25 3 0 31 28 64 62 33 35 41 45 18 23 -24
-21 -43 -35 -43 -29 0 15 69 79 77 71 10 -10 53 34 46 47 -3 6 -2 8 2 3 11
-10 45 22 39 37 -2 6 22 36 53 66 l58 55 -54 -57 c-81 -85 -57 -79 29 7 41 41
76 75 78 75 1 0 -2 -8 -7 -17z m79 -190 c-169 -175 -190 -194 -190 -176 0 11
344 353 355 353 4 0 -70 -80 -165 -177z m3560 -17 c85 -85 151 -159 147 -163
-8 -7 -42 27 -253 246 -155 163 -79 102 106 -83z m-2430 105 c0 -21 -57 -72
-73 -65 -23 8 -22 13 10 46 26 27 63 38 63 19z m1324 -20 c28 -29 28 -51 1
-51 -13 0 -65 59 -65 73 0 18 39 4 64 -22z m-682 0 c2 -4 35 -43 73 -86 67
-74 90 -106 66 -91 -6 4 -11 3 -11 -2 0 -5 -14 -12 -32 -16 -28 -5 -37 -1 -70
31 l-38 37 -38 -37 c-33 -32 -42 -36 -70 -31 -18 4 -32 11 -32 16 0 5 -5 6
-11 2 -24 -15 -1 17 66 91 39 43 72 82 73 86 2 5 7 9 12 9 5 0 10 -4 12 -9z
m-1367 -116 c-59 -63 -102 -115 -96 -115 7 0 9 -5 5 -11 -5 -8 -8 -8 -14 0 -5
9 -10 8 -19 -2 -9 -12 -8 -16 2 -20 9 -3 34 16 63 46 27 28 39 43 27 33 -26
-22 -31 -11 -7 15 9 10 21 15 28 13 7 -3 19 3 27 12 9 12 10 15 2 10 -7 -4
-13 -2 -13 3 0 10 13 15 31 13 3 -1 26 19 50 44 24 24 37 44 30 44 -6 0 -9 5
-5 11 5 8 10 6 16 -5 11 -20 28 -21 28 -1 0 16 45 22 54 7 5 -8 -420 -456
-438 -460 -6 -1 -16 6 -23 17 -10 16 -7 25 25 62 24 30 27 36 9 20 -40 -36
-33 -11 8 29 21 20 35 28 35 20 0 -10 9 -5 26 12 19 19 24 30 17 42 -7 13 -20
5 -73 -49 -46 -46 -61 -68 -52 -73 9 -6 4 -16 -18 -37 -35 -34 -40 -23 -7 14
18 21 18 23 2 10 -57 -45 -40 -21 55 77 190 197 325 334 328 334 2 0 -44 -52
-103 -115z m2740 -24 c-3 -2 -6 -2 -7 0 -2 3 -32 36 -68 74 l-65 70 72 -69
c40 -39 70 -72 68 -75z m-192 113 c-2 -7 1 -15 8 -20 8 -4 15 -2 17 5 3 8 25
-8 59 -40 29 -30 57 -53 61 -51 4 1 7 -2 7 -7 0 -4 63 -75 139 -157 76 -81
134 -150 127 -152 -6 -2 -11 -10 -11 -18 0 -8 -6 -14 -12 -14 -15 0 -432 435
-436 455 -2 8 6 12 21 11 14 0 23 -6 20 -12z m-2479 -53 c-15 -17 -30 -29 -32
-26 -3 3 7 19 23 35 37 39 45 31 9 -9z m315 18 c42 -12 80 -25 85 -30 5 -5
-39 -58 -105 -127 -208 -216 -291 -311 -283 -323 5 -8 3 -9 -5 -4 -8 4 -25 -4
-44 -23 l-32 -30 -77 36 c-43 19 -78 38 -78 42 0 8 451 480 458 480 3 0 40 -9
81 -21z m2093 -46 c186 -193 388 -407 388 -413 0 -4 -35 -23 -77 -42 l-78 -36
-32 30 c-19 19 -36 27 -44 23 -8 -5 -10 -4 -5 4 8 12 -77 110 -287 327 l-118
123 73 21 c40 12 78 23 83 25 24 8 34 1 97 -62z m198 4 c0 -5 -13 5 -30 21
-16 17 -30 34 -30 38 0 4 14 -5 30 -21 17 -16 30 -33 30 -38z m-2091 -16 c12
-8 -4 -29 -75 -103 -106 -110 -222 -233 -288 -304 -34 -38 -52 -51 -66 -47
-11 3 -20 9 -20 13 0 10 419 450 428 450 4 0 14 -4 21 -9z m1780 -212 c116
-121 211 -224 211 -229 0 -4 -9 -10 -19 -13 -15 -4 -44 22 -123 107 -57 61
-152 162 -212 224 -85 88 -106 116 -95 123 8 5 17 9 21 9 4 0 101 -99 217
-221z m1148 180 c2 -16 -1 -19 -9 -11 -5 5 -7 15 -4 21 10 15 12 14 13 -10z
m-685 -74 c6 -11 -8 -2 -31 20 -22 21 -41 43 -41 49 0 13 59 -43 72 -69z
m-1715 49 c-3 -3 -12 -4 -19 -1 -8 3 -5 6 6 6 11 1 17 -2 13 -5z m510 0 c-3
-3 -12 -4 -19 -1 -8 3 -5 6 6 6 11 1 17 -2 13 -5z m1138 -14 c10 -11 16 -20
13 -20 -3 0 -13 9 -23 20 -10 11 -16 20 -13 20 3 0 13 -9 23 -20z m-1385 -5
c15 -18 5 -35 -20 -35 -10 0 -22 5 -25 10 -7 11 12 40 25 40 4 0 13 -7 20 -15z
m-1430 -9 c0 -2 -8 -10 -17 -17 -16 -13 -17 -12 -4 4 13 16 21 21 21 13z
m2897 -53 c5 3 52 -37 104 -90 52 -53 87 -92 79 -87 -8 4 -50 46 -94 91 -43
46 -81 81 -84 78 -3 -3 33 -45 81 -93 48 -48 87 -91 87 -96 0 -5 -12 1 -26 15
-39 36 -213 228 -182 200 15 -12 31 -21 35 -18z m-3627 17 c13 -8 13 -10 -2
-10 -9 0 -20 5 -23 10 -8 13 5 13 25 0z m-80 -20 c0 -5 -2 -10 -4 -10 -3 0 -8
5 -11 10 -3 6 -1 10 4 10 6 0 11 -4 11 -10z m125 -8 c-3 -3 -11 0 -18 7 -9 10
-8 11 6 5 10 -3 15 -9 12 -12z m-206 -78 c-43 -43 -70 -63 -80 -59 -25 9 -18
32 19 67 19 18 32 27 28 21 -4 -8 -2 -13 5 -13 7 0 -3 -17 -22 -37 l-34 -38
37 34 c21 19 35 37 33 40 -3 2 9 20 27 38 22 22 35 30 42 23 7 -7 -10 -31 -55
-76z m451 82 c0 -2 -8 -10 -17 -17 -16 -13 -17 -12 -4 4 13 16 21 21 21 13z
m4155 -56 c-2 -4 15 -24 38 -46 l42 -39 -40 43 c-22 23 -33 42 -25 42 9 0 3
12 -16 33 l-29 32 34 -30 c66 -58 83 -78 87 -100 7 -40 -29 -25 -98 43 -46 45
-64 68 -55 74 12 8 70 -40 62 -52z m-4275 35 c-7 -8 -17 -15 -22 -15 -6 0 -5
7 2 15 7 8 17 15 22 15 6 0 5 -7 -2 -15z m3960 0 c20 -24 6 -28 -15 -5 -10 11
-13 20 -8 20 6 0 16 -7 23 -15z m-3856 -18 c4 4 4 -1 0 -10 -3 -10 -7 -17 -8
-15 -1 2 -10 14 -21 28 l-20 25 21 -18 c11 -9 24 -14 28 -10z m363 -2 c-23
-22 -33 -18 -12 5 10 11 20 18 23 16 2 -3 -3 -12 -11 -21z m1298 15 c3 -4 15
-6 27 -2 20 5 20 4 7 -15 -16 -23 -404 -448 -496 -544 l-35 -37 -39 21 c-24
13 -36 25 -31 33 8 14 255 285 361 396 41 43 80 78 88 78 7 0 13 5 13 10 0 6
3 9 8 9 25 -4 32 2 23 19 -7 13 -7 22 0 29 12 12 67 15 74 3z m482 -3 c6 -4 9
-17 6 -28 -4 -15 -2 -20 7 -17 8 2 23 -4 34 -14 12 -11 29 -27 40 -36 36 -33
418 -454 414 -457 -1 -1 -19 -12 -39 -23 l-36 -20 -36 36 c-19 21 -55 60 -78
87 -39 45 -73 82 -244 265 -159 169 -197 218 -161 204 8 -3 17 -1 20 4 7 11
55 10 73 -1z m1617 -9 c-10 -13 -19 -24 -20 -26 -1 -2 -4 4 -8 13 -3 9 -2 14
3 11 5 -3 14 1 21 9 7 8 15 15 18 15 3 0 -3 -10 -14 -22z m-4080 -99 c-59 -60
-92 -85 -98 -79 -14 14 153 180 172 172 9 -3 -17 -36 -74 -93z m4471 -79 c-5
-8 -36 16 -96 76 -57 57 -84 91 -77 95 16 10 183 -155 173 -171z m-4185 166
c0 -2 -8 -10 -17 -17 -16 -13 -17 -12 -4 4 13 16 21 21 21 13z m1848 -11 c47
-14 57 -14 104 0 28 8 55 15 59 15 10 0 549 -587 549 -598 0 -5 -101 -55 -225
-112 l-224 -102 31 -37 31 -37 51 27 c94 51 397 190 405 187 13 -4 221 -236
221 -245 0 -5 -95 -62 -210 -127 -116 -66 -210 -122 -210 -126 0 -3 -24 16
-52 43 -29 28 -52 54 -50 59 1 5 -5 11 -13 14 -18 7 -246 268 -264 302 -7 13
-17 20 -23 16 -7 -5 -9 -2 -5 9 6 17 -15 41 -27 29 -4 -4 -6 0 -4 8 2 8 -3 14
-9 12 -7 -1 -13 4 -14 10 0 7 -16 26 -36 43 l-35 29 -39 -42 c-22 -22 -39 -38
-39 -35 0 4 -11 -4 -24 -16 -14 -13 -22 -30 -19 -37 3 -9 0 -14 -7 -12 -6 2
-17 -6 -23 -17 -21 -36 -151 -180 -160 -177 -5 1 -6 -2 -2 -7 3 -6 -42 -58
-100 -116 -58 -58 -105 -110 -105 -116 0 -5 -9 -2 -20 8 -10 10 -107 67 -215
128 -107 60 -195 112 -195 116 0 6 67 85 162 188 l58 64 63 -27 c34 -15 137
-64 229 -109 l167 -82 30 36 30 37 -82 37 c-289 131 -367 169 -367 177 0 9 77
94 438 486 57 61 107 112 111 112 4 0 31 -7 59 -15z m-3043 -65 c3 0 3 6 -1
13 -4 6 -3 8 1 4 19 -17 12 -33 -13 -31 -22 1 -28 7 -33 35 l-7 34 23 -27 c13
-16 27 -28 30 -28z m975 -45 c-47 -47 -89 -85 -95 -85 -5 0 31 40 80 90 49 49
91 87 94 84 3 -2 -33 -43 -79 -89z m4334 -84 c-6 -6 -174 161 -174 174 0 5 40
-31 90 -80 49 -49 87 -91 84 -94z m927 147 c-5 -25 -12 -32 -33 -32 -25 -2
-32 14 -13 31 4 4 5 2 1 -4 -13 -23 5 -14 26 12 25 32 27 32 19 -7z m-5111
-11 c0 -2 -17 -19 -37 -38 l-38 -34 34 38 c33 34 41 42 41 34z m3970 -22 c13
-14 21 -25 18 -25 -2 0 -15 11 -28 25 -13 14 -21 25 -18 25 2 0 15 -11 28 -25z
m1063 -6 c-6 -20 -3 -21 30 -15 l37 7 -1 -38 c0 -32 -2 -35 -10 -18 -8 17 -17
20 -45 17 -32 -4 -35 -2 -32 19 3 23 15 49 23 49 2 0 1 -10 -2 -21z m-6108
-21 c-3 -30 -3 -30 -17 -21 -27 16 -53 8 -59 -17 -6 -21 -7 -19 -8 13 -1 39 3
42 42 28 19 -8 27 -6 31 5 8 21 14 17 11 -8z m614 6 c43 -9 27 -26 -17 -18
-51 9 -75 23 -41 24 15 0 40 -3 58 -6z m4931 -4 c-19 -12 -94 -24 -112 -17
-18 6 48 25 92 26 26 0 31 -2 20 -9z m-5065 -10 c-16 -4 -39 -8 -50 -8 l-20
-1 20 9 c11 5 34 8 50 8 l30 0 -30 -8z m5175 1 c0 -8 -79 -3 -89 5 -2 2 17 4
42 4 26 0 47 -4 47 -9z m-5723 -103 c-3 -7 -5 -2 -5 12 0 14 2 19 5 13 2 -7 2
-19 0 -25z m1386 7 c-4 -11 2 -12 28 -5 55 16 58 -4 8 -59 -24 -27 -50 -49
-56 -50 -7 -1 -13 -7 -13 -14 0 -19 -57 -70 -69 -63 -6 4 -11 21 -11 38 0 30
0 31 -20 13 -41 -37 -28 -7 15 35 25 24 45 49 45 54 0 6 -26 -14 -57 -44 -32
-30 -20 -16 26 32 47 48 90 84 97 81 7 -2 10 -11 7 -18z m3557 -62 c47 -49 61
-66 33 -38 -29 27 -53 45 -53 39 0 -5 18 -27 40 -49 38 -37 49 -65 12 -32 -17
15 -18 15 -19 -6 -2 -17 0 -19 7 -7 5 8 10 10 10 4 0 -6 -9 -19 -21 -30 -20
-18 -21 -18 -66 31 -25 28 -64 69 -86 92 -47 49 -42 69 12 53 27 -7 32 -6 27
5 -2 7 0 16 7 19 7 2 12 5 12 5 0 1 39 -38 85 -86z m1287 55 c-3 -7 -5 -2 -5
12 0 14 2 19 5 13 2 -7 2 -19 0 -25z m-4588 -73 l73 -35 -97 -103 c-54 -56
-101 -103 -106 -105 -5 -2 -35 11 -66 29 -102 57 -99 46 -27 124 35 39 64 76
64 83 0 7 4 11 9 8 4 -3 16 3 26 14 25 27 39 25 124 -15z m3066 15 c13 -15 21
-17 31 -9 9 8 11 6 8 -8 -3 -12 16 -41 60 -87 74 -78 76 -67 -27 -125 -31 -18
-61 -31 -65 -29 -5 2 -52 49 -106 105 l-98 103 73 35 c85 40 99 42 124 15z
m-2812 3 c10 -9 -23 -43 -43 -43 -26 0 -31 12 -13 32 16 18 44 24 56 11z
m2485 -5 c18 -18 14 -38 -6 -38 -21 0 -56 33 -45 43 10 11 38 8 51 -5z m-163
-8 c3 -6 -1 -7 -9 -4 -18 7 -21 14 -7 14 6 0 13 -4 16 -10z m-4070 -130 c38
-38 65 -70 59 -70 -17 0 -160 139 -144 140 9 0 47 -31 85 -70z m5956 0 c-97
-91 -117 -91 -26 0 39 38 77 69 85 69 8 0 -18 -31 -59 -69z m-4393 -70 c-57
-61 -106 -110 -109 -110 -4 0 -11 6 -17 13 -8 9 14 39 89 120 88 93 103 106
120 96 18 -9 10 -20 -83 -119z m2926 -100 c-14 -13 -26 -3 -119 95 -93 99
-102 111 -87 123 15 12 29 1 119 -95 92 -97 101 -110 87 -123z m594 164 c69
-10 110 -20 104 -26 -5 -5 -27 -5 -56 2 -50 11 -250 16 -328 8 -37 -4 -44 -3
-35 7 7 7 14 12 15 10 2 -2 17 2 33 9 35 15 111 12 267 -10z m-3958 6 c0 -5 8
-11 18 -12 9 -1 -57 -5 -148 -9 -91 -4 -196 -10 -235 -13 -87 -8 -58 9 50 28
86 16 315 20 315 6z m1006 -108 c-7 -7 -46 9 -46 18 0 5 11 4 25 -2 14 -6 23
-13 21 -16z m1714 18 c0 -5 -8 -10 -17 -10 -15 0 -16 2 -3 10 19 12 20 12 20
0z m-1682 -121 l32 -16 -106 -116 c-59 -64 -108 -117 -110 -117 -8 0 -48 25
-62 38 -16 15 -5 29 110 145 32 31 58 62 58 68 0 7 6 6 17 -2 11 -10 14 -10 9
-1 -8 14 3 39 13 25 3 -5 21 -16 39 -24z m1675 8 c4 3 7 -3 7 -15 0 -12 6 -22
14 -22 12 0 156 -149 163 -168 2 -4 -14 -18 -34 -31 l-37 -24 -78 84 c-43 46
-91 100 -108 120 l-29 36 34 13 c19 8 35 19 35 24 0 6 7 3 14 -6 7 -10 16 -15
19 -11z m-843 -102 l23 -24 -27 -12 c-20 -10 -32 -10 -52 0 l-27 12 23 24 c13
14 26 25 30 25 4 0 17 -11 30 -25z m-3005 -5 c-3 -5 -11 -10 -16 -10 -6 0 -7
5 -4 10 3 6 11 10 16 10 6 0 7 -4 4 -10z m3014 -71 l38 20 28 -29 28 -29 -48
-21 c-45 -19 -49 -19 -66 -4 -18 16 -20 16 -38 0 -17 -15 -21 -15 -66 4 l-48
21 28 29 28 29 38 -20 c39 -19 39 -19 78 0z m-1829 -109 c0 -5 -4 -10 -10 -10
-5 0 -10 5 -10 10 0 6 5 10 10 10 6 0 10 -4 10 -10z m3620 -22 l24 -33 -31 25
c-31 25 -41 40 -25 40 5 0 19 -15 32 -32z m-1977 1 c23 -12 44 -23 45 -24 3
-3 -181 -216 -243 -283 -11 -12 -20 -10 -54 10 -22 12 -39 27 -38 32 3 10 239
285 245 286 1 0 22 -10 45 -21z m466 -123 c66 -76 121 -142 121 -145 0 -3 -19
-16 -42 -29 -34 -18 -44 -20 -54 -10 -64 70 -245 280 -242 282 10 10 84 45 89
43 4 -1 61 -65 128 -141z m1557 78 c-19 -18 -21 -11 -4 19 7 14 13 17 15 10 3
-7 -3 -20 -11 -29z m-3739 -26 c-3 -7 -5 -2 -5 12 0 14 2 19 5 13 2 -7 2 -19
0 -25z m426 8 c3 -8 3 -23 0 -35 l-5 -21 -29 21 c-16 11 -29 27 -29 35 0 19
56 19 63 0z m164 -30 c27 -14 59 -30 73 -36 24 -10 24 -10 -5 -5 -36 7 -105
37 -105 47 0 3 -10 4 -22 1 -19 -4 -20 -3 -8 6 19 14 12 15 67 -13z m2618 6
c-3 -3 -11 0 -18 7 -9 10 -8 11 6 5 10 -3 15 -9 12 -12z m-31 -1 c4 -5 -7 -12
-24 -16 -16 -4 -30 -10 -30 -13 0 -4 -16 -8 -36 -9 -36 -2 -36 -1 -15 14 12 8
28 12 36 9 8 -3 15 -1 15 5 0 6 7 9 15 5 8 -3 15 -1 15 4 0 13 17 13 24 1z
m-3155 -34 c0 -21 -1 -21 -9 -2 -12 28 -12 37 0 30 6 -3 10 -16 9 -28z m3692
-4 c-10 -17 -10 -16 -11 3 0 23 13 41 18 25 2 -6 -1 -18 -7 -28z m-3228 -2 c4
-1 7 -7 7 -15 0 -16 34 -31 50 -21 6 3 7 0 4 -9 -4 -11 3 -20 23 -28 15 -7 40
-20 56 -31 20 -13 27 -15 27 -5 0 10 2 10 8 1 10 -15 61 -35 73 -27 5 3 9 0 9
-5 0 -6 8 -11 18 -11 28 0 55 -35 50 -64 -5 -23 -3 -24 25 -19 22 4 32 2 39
-11 10 -17 46 -14 59 6 3 5 13 3 22 -6 8 -9 20 -16 26 -16 6 0 11 -7 11 -15 0
-7 8 -19 18 -25 16 -10 16 -10 0 -20 -10 -6 -18 -18 -18 -25 0 -8 -7 -15 -15
-15 -8 0 -15 -5 -15 -11 0 -5 -4 -7 -10 -4 -5 3 -10 1 -10 -6 0 -6 -12 1 -26
16 -25 27 -27 28 -40 10 -7 -10 -11 -21 -9 -25 3 -5 -9 -7 -27 -6 -20 2 -38
-4 -50 -16 -17 -17 -12 -23 15 -19 17 3 4 -15 -22 -31 -27 -15 -30 -15 -33 -1
-3 16 -18 7 -79 -49 -10 -10 -19 -13 -19 -7 0 6 -12 2 -27 -8 -16 -11 -40 -24
-55 -31 -16 -6 -28 -16 -28 -22 0 -5 -7 -10 -15 -10 -8 0 -20 -9 -27 -20 -7
-11 -21 -20 -32 -20 -21 0 -45 -27 -46 -51 0 -18 -47 -32 -56 -17 -7 12 16 39
27 32 5 -3 9 -1 9 3 0 10 86 73 98 73 5 0 17 8 28 18 10 10 94 69 187 131 92
62 167 117 167 121 0 6 -119 90 -395 276 -58 40 -59 41 -32 38 12 -1 25 -3 30
-3z m2782 -14 c-16 -12 -37 -26 -47 -32 -45 -25 -378 -259 -378 -265 0 -7 117
-89 359 -253 46 -31 86 -59 88 -60 1 -2 -11 -2 -27 1 -17 2 -30 9 -30 16 -1
10 -80 66 -95 66 -4 0 -18 9 -32 20 -14 11 -37 20 -50 20 -13 0 -22 4 -19 9 3
5 -10 18 -29 30 -19 11 -34 17 -32 13 3 -11 -16 -10 -40 1 -21 9 -32 28 -15
26 26 -4 30 3 13 20 -13 13 -30 18 -52 16 -19 -2 -28 -1 -21 2 10 4 9 9 -4 24
-23 25 -32 24 -46 -6 -8 -18 -15 -22 -23 -15 -7 5 -16 6 -20 2 -5 -4 -5 -1 -1
6 4 6 3 12 -2 12 -5 0 -21 11 -36 25 l-27 25 27 25 c15 14 31 25 36 25 5 0 6
4 3 10 -3 6 1 7 9 4 10 -4 16 -1 16 7 1 9 4 8 11 -3 5 -10 16 -18 24 -18 8 0
19 8 24 18 9 14 12 14 20 3 6 -9 11 -10 15 -2 4 6 11 9 16 6 5 -3 18 3 30 15
18 18 14 25 -12 21 -19 -3 -5 17 20 28 28 13 39 12 34 -3 -4 -12 30 14 46 37
7 9 24 17 36 17 13 0 34 8 47 19 13 10 34 22 47 26 13 4 39 22 57 40 19 18 37
30 40 27 3 -3 5 0 5 6 0 7 10 12 23 12 21 -1 20 -2 -8 -23z m-3972 -55 c19
-17 49 -73 43 -80 -6 -5 -106 88 -106 98 0 12 42 -1 63 -18z m5149 -34 c-54
-52 -74 -58 -50 -16 23 40 50 67 63 62 7 -3 16 0 20 6 4 6 10 8 13 5 4 -4 -17
-29 -46 -57z m-3417 -18 c3 -5 -3 -10 -14 -10 -12 0 -21 5 -21 10 0 6 6 10 14
10 8 0 18 -4 21 -10z m-1568 -151 c-4 -10 -8 -7 -12 9 -4 12 -11 22 -16 22 -5
0 -9 6 -9 12 0 7 9 3 21 -9 12 -11 19 -27 16 -34z m4837 33 c-6 -4 -14 -16
-18 -27 -6 -14 -10 -16 -13 -7 -5 14 27 56 36 47 3 -4 1 -9 -5 -13z m-4231
-110 c-8 -44 -9 -41 -9 38 -1 72 1 79 9 47 5 -22 6 -56 0 -85z m940 111 c-7
-2 -19 -2 -25 0 -7 3 -2 5 12 5 14 0 19 -2 13 -5z m197 -2 c0 -5 -12 -23 -26
-40 l-26 -31 26 -31 c14 -17 26 -36 26 -42 -1 -7 -9 -2 -19 9 -15 18 -19 20
-27 7 -6 -10 -9 9 -9 56 0 53 3 68 11 57 9 -12 12 -12 22 5 13 20 22 25 22 10z
m1537 3 c-3 -3 -12 -4 -19 -1 -8 3 -5 6 6 6 11 1 17 -2 13 -5z m930 -76 c0
-73 -2 -78 -10 -45 -8 32 -2 127 7 127 2 0 3 -37 3 -82z m-2593 54 c3 -5 -8
-9 -24 -10 -17 0 -30 4 -30 9 0 11 47 12 54 1z m1626 -1 c0 -5 -13 -9 -30 -9
-16 1 -27 5 -24 10 7 11 54 10 54 -1z m-1640 -51 c0 -5 -4 -10 -10 -10 -5 0
-10 5 -10 10 0 6 5 10 10 10 6 0 10 -4 10 -10z m1620 0 c0 -5 -4 -10 -10 -10
-5 0 -10 5 -10 10 0 6 5 10 10 10 6 0 10 -4 10 -10z m-1340 -65 c10 -15 7 -14
-13 4 -15 14 -27 29 -27 33 0 10 16 -5 40 -37z m-1899 -8 c-12 -12 -21 -16
-21 -9 0 7 4 12 9 12 5 0 12 10 16 23 4 15 8 18 12 8 3 -7 -4 -23 -16 -34z
m4839 17 c0 -8 5 -14 10 -14 6 0 10 -5 10 -12 0 -6 -9 -3 -20 7 -20 18 -28 51
-10 40 6 -3 10 -13 10 -21z m-3206 4 c-7 -11 -54 -10 -54 1 0 5 13 9 30 9 16
-1 27 -5 24 -10z m1626 1 c0 -11 -47 -12 -54 -1 -3 5 8 9 24 10 17 0 30 -4 30
-9z m-1697 -26 c-7 -2 -19 -2 -25 0 -7 3 -2 5 12 5 14 0 19 -2 13 -5z m1734 1
c-3 -3 -12 -4 -19 -1 -8 3 -5 6 6 6 11 1 17 -2 13 -5z m-1103 -190 c70 -80
126 -147 124 -149 -18 -15 -92 -45 -98 -38 -42 44 -240 278 -240 282 0 6 70
50 80 51 3 0 63 -66 134 -146z m626 124 c22 -13 40 -26 40 -29 0 -4 -192 -230
-245 -287 -3 -3 -84 35 -94 44 -2 2 16 25 39 51 24 26 81 92 128 146 47 53 87
97 89 97 2 0 22 -10 43 -22z m-2940 -57 c-22 -44 -34 -54 -70 -58 -22 -3 -19
2 27 47 28 27 54 50 57 50 4 0 -3 -18 -14 -39z m5120 -7 c52 -48 65 -73 30
-54 -11 6 -20 8 -20 4 0 -14 -40 30 -55 59 -26 52 -18 50 45 -9z m-3042 -64
c26 -23 41 -39 33 -35 -7 4 17 -22 53 -59 39 -39 64 -71 60 -78 -4 -6 -3 -8 3
-5 6 4 16 0 23 -8 7 -8 11 -15 8 -15 -2 0 23 -28 55 -62 32 -35 64 -74 71 -88
7 -14 18 -24 24 -22 7 1 12 -6 12 -16 0 -20 42 -65 53 -57 4 3 5 2 3 -1 -3 -3
11 -19 30 -36 l34 -30 47 42 c27 23 47 47 45 54 -2 6 0 8 4 4 11 -12 34 11 27
28 -3 8 3 17 15 21 12 5 22 13 23 18 3 17 127 154 133 148 3 -4 6 1 6 10 0 8
31 47 68 85 37 39 63 68 57 64 -5 -3 15 19 45 49 42 41 58 51 67 42 7 -6 103
-62 213 -125 110 -62 200 -116 200 -121 0 -9 -208 -241 -221 -245 -8 -3 -311
136 -405 187 l-51 27 -31 -37 -31 -37 82 -37 c290 -132 367 -169 367 -178 0
-5 -53 -66 -117 -136 -65 -70 -187 -202 -272 -294 -84 -92 -156 -167 -160
-167 -4 0 -31 7 -59 15 -47 14 -57 14 -107 -1 -45 -13 -59 -13 -71 -3 -8 7
-81 85 -162 173 -81 89 -197 216 -259 282 -62 67 -113 126 -113 131 0 6 101
56 225 113 l224 102 -30 37 -30 36 -221 -108 c-122 -59 -227 -107 -234 -105
-13 3 -224 234 -224 246 0 4 95 61 210 126 116 65 210 124 210 130 0 6 5 3 10
-6 6 -9 32 -35 58 -58z m-1389 -74 c-9 -8 -10 -7 -5 7 3 10 7 24 7 30 1 7 3 4
6 -7 3 -10 -1 -23 -8 -30z m602 17 c-8 -15 -10 -15 -11 -2 0 17 10 32 18 25 2
-3 -1 -13 -7 -23z m59 23 c0 -11 -19 -15 -25 -6 -3 5 1 10 9 10 9 0 16 -2 16
-4z m2405 -6 c4 -6 15 -8 26 -5 11 4 19 2 19 -4 0 -6 6 -11 13 -11 8 0 24 -9
37 -20 27 -23 20 -25 -23 -6 -18 7 -47 19 -64 26 -18 7 -33 16 -33 21 0 12 17
11 25 -1z m644 -33 c1 -5 -3 -5 -9 -2 -5 3 -10 16 -9 28 0 21 1 21 9 2 5 -11
9 -24 9 -28z m-404 13 c3 -5 1 -10 -4 -10 -6 0 -11 5 -11 10 0 6 2 10 4 10 3
0 8 -4 11 -10z m-2731 -14 c-7 -18 -33 -25 -58 -16 -18 6 -18 7 -3 13 10 4 17
2 17 -5 0 -6 9 -4 23 5 28 20 27 20 21 3z m2761 -6 c3 -5 1 -10 -4 -10 -6 0
-11 5 -11 10 0 6 2 10 4 10 3 0 8 -4 11 -10z m-3348 -42 c-3 -7 -5 -2 -5 12 0
14 2 19 5 13 2 -7 2 -19 0 -25z m3730 0 c-3 -7 -5 -2 -5 12 0 14 2 19 5 13 2
-7 2 -19 0 -25z m-3657 -82 c0 -6 -11 2 -25 18 -32 37 -32 46 0 16 14 -13 25
-28 25 -34z m3613 24 c-16 -28 -33 -39 -33 -23 0 7 41 53 47 53 2 0 -4 -13
-14 -30z m-2699 -157 l106 -116 -32 -16 c-18 -8 -36 -20 -40 -25 -4 -6 -10 -4
-14 7 -3 9 -10 14 -15 11 -5 -3 -9 4 -9 15 0 12 -6 21 -13 21 -8 0 -35 24 -62
53 -27 28 -62 66 -78 84 -25 27 -28 34 -15 45 16 15 50 37 59 37 4 1 54 -52
113 -116z m858 100 c17 -15 19 -15 37 1 17 15 21 15 66 -4 l48 -21 -28 -29
-28 -29 -38 20 c-39 19 -39 19 -78 0 l-38 -20 -28 29 -28 29 44 20 c55 24 49
24 71 4z m1030 5 c54 -31 54 -33 -24 -119 -40 -45 -83 -85 -95 -90 -16 -6 -21
-13 -16 -26 6 -16 5 -17 -12 -3 -17 14 -18 13 -12 -2 7 -21 3 -22 -24 -7 -11
5 -17 15 -13 21 4 6 -1 8 -15 3 -11 -3 -21 -2 -21 3 0 9 198 232 206 232 3 0
14 -6 26 -12z m-978 -111 c16 -12 15 -14 -8 -36 l-26 -24 -26 24 c-23 22 -24
24 -8 36 10 7 25 13 34 13 9 0 24 -6 34 -13z m-1436 -267 c93 -99 101 -110 83
-119 -17 -10 -32 3 -120 96 -75 81 -97 111 -89 120 6 7 13 13 17 13 3 0 52
-49 109 -110z m2930 97 c8 -9 -14 -39 -89 -120 -88 -93 -103 -106 -120 -96
-18 9 -11 20 82 120 56 60 105 109 109 109 4 0 12 -6 18 -13z m-2169 -82 c2
-5 41 -48 85 -95 45 -47 115 -123 156 -170 41 -46 113 -125 159 -174 l85 -90
-35 -8 c-18 -4 -40 -5 -46 -3 -7 2 -13 -1 -13 -7 0 -6 -9 -3 -20 7 -15 13 -17
22 -9 36 9 18 2 24 -23 20 -5 0 -8 3 -8 9 0 5 -6 10 -14 10 -14 0 -148 140
-409 428 -52 56 -51 64 3 89 22 9 29 7 55 -16 16 -14 32 -30 34 -36z m1396 24
c-4 -5 2 -6 11 -2 16 6 16 4 3 -14 -15 -21 -257 -288 -366 -403 -34 -36 -70
-66 -80 -67 -15 -1 -37 -6 -61 -12 -1 -1 4 -12 13 -24 14 -22 14 -25 -5 -42
-13 -12 -20 -14 -20 -5 0 7 -7 10 -16 6 -9 -4 -23 -1 -30 5 -7 6 -18 8 -24 4
-30 -19 -1 24 66 97 43 46 123 133 179 193 56 61 125 137 154 170 29 33 68 76
88 96 34 35 36 36 64 22 16 -8 27 -19 24 -24z m-2250 -96 l97 -103 -73 -35
c-85 -40 -99 -42 -124 -15 -10 11 -22 17 -26 14 -5 -3 -9 0 -9 7 0 7 -28 43
-61 81 -34 38 -59 72 -55 75 17 17 133 83 142 81 6 -2 55 -49 109 -105z m3181
65 l73 -41 -19 -26 c-10 -14 -39 -46 -64 -71 -25 -24 -46 -50 -46 -58 0 -7 -4
-11 -9 -8 -4 3 -16 -3 -26 -14 -25 -27 -39 -25 -124 15 l-73 35 99 105 c54 57
102 105 107 105 4 0 41 -19 82 -42z m-2536 17 c-14 -7 -27 -11 -30 -9 -6 7 22
24 40 23 9 0 5 -6 -10 -14z m1730 -7 c0 -5 -9 -4 -20 2 -11 6 -20 12 -20 14 0
2 9 2 20 -1 11 -3 20 -9 20 -15z m-3811 -54 c-66 -71 -104 -103 -119 -103 -8
0 18 31 59 69 78 73 120 96 60 34z m5922 -34 c41 -38 67 -69 59 -69 -15 0 -53
32 -119 103 -60 62 -18 39 60 -34z m-5066 24 c96 -5 201 -7 215 -3 8 2 15 -3
15 -11 0 -29 -200 -26 -367 6 -16 3 -28 10 -28 16 0 7 20 8 63 2 34 -4 80 -9
102 -10z m3906 0 c54 -11 230 -5 352 11 67 9 82 -10 15 -20 -24 -3 -65 -11
-93 -17 -28 -5 -99 -8 -160 -5 -136 7 -131 6 -152 30 -10 11 -13 18 -7 14 6
-3 26 -9 45 -13z m-3601 -81 c23 -27 61 -67 83 -90 47 -49 42 -69 -12 -53 -26
7 -32 6 -28 -5 3 -7 0 -16 -7 -18 -7 -3 -50 33 -97 81 -46 48 -60 65 -31 37
28 -27 52 -45 52 -39 0 5 -18 27 -40 49 -41 40 -47 63 -8 29 22 -19 22 -19 8
0 -12 15 -12 20 -2 23 6 3 12 11 12 19 0 27 27 14 70 -33z m3610 7 c4 -30 6
-32 19 -17 7 10 18 17 24 17 6 0 -8 -19 -31 -43 -60 -61 -52 -71 11 -12 28 28
14 11 -32 -37 -47 -48 -90 -84 -97 -81 -7 2 -11 10 -8 18 5 13 -34 14 -55 1
-5 -4 -13 -2 -16 4 -8 13 154 192 169 187 6 -2 13 -19 16 -37z m-3065 -70 c17
-19 17 -20 0 -26 -21 -9 -49 7 -53 30 -5 23 31 21 53 -4z m2500 1 c0 -20 -29
-35 -50 -27 -17 6 -17 7 1 27 19 22 49 22 49 0z m-2554 -76 c8 5 10 4 5 -4 -9
-13 7 -31 242 -279 88 -93 151 -167 146 -172 -5 -4 -45 -18 -88 -30 l-79 -22
-53 54 c-131 133 -404 422 -404 428 0 4 35 23 78 43 l77 35 32 -30 c19 -19 36
-27 44 -23z m2787 -20 c6 -5 -92 -112 -301 -329 l-152 -158 -80 22 c-44 12
-84 26 -89 31 -6 5 27 47 85 106 208 215 309 328 305 340 -3 6 0 10 7 7 7 -2
25 9 41 25 l28 29 76 -34 c42 -19 78 -37 80 -39z m-2529 -120 c47 -49 126
-132 175 -183 77 -80 88 -95 74 -103 -12 -6 -23 -6 -35 2 -23 15 -406 423
-411 437 -2 6 5 12 15 15 12 3 32 -10 57 -37 22 -23 78 -81 125 -131z m2238
152 c-4 -13 -387 -420 -409 -435 -18 -12 -51 -6 -46 8 2 5 48 55 103 112 55
57 149 155 208 219 84 90 113 115 128 112 11 -3 18 -10 16 -16z m-4330 -39
c-3 -7 -5 -2 -5 12 0 14 2 19 5 13 2 -7 2 -19 0 -25z m6230 0 c-3 -7 -5 -2 -5
12 0 14 2 19 5 13 2 -7 2 -19 0 -25z m-5237 -83 c46 -46 82 -87 79 -89 -3 -3
-45 35 -94 84 -49 50 -85 90 -80 90 6 0 48 -38 95 -85z m4255 -5 c-49 -49 -91
-87 -94 -84 -6 6 161 174 174 174 5 0 -31 -40 -80 -90z m-5230 15 c11 1 25 4
32 8 21 13 29 -31 9 -50 -4 -4 -7 -3 -6 2 6 28 0 34 -26 25 -40 -15 -44 -13
-43 28 1 31 2 33 8 12 4 -16 13 -25 26 -25z m985 -127 c0 -22 -33 1 -104 71
-51 51 -76 83 -71 91 5 8 34 -14 91 -71 46 -46 84 -87 84 -91z m3714 147 c16
-24 15 -26 -55 -99 -55 -59 -69 -79 -61 -91 7 -14 22 -3 87 69 43 47 85 88 93
91 8 3 -76 -89 -187 -204 -206 -214 -292 -297 -164 -158 49 53 70 83 67 95 -4
12 -3 13 3 5 7 -10 18 -4 43 22 19 19 28 35 21 35 -7 0 -9 5 -5 11 5 8 8 8 14
0 5 -9 10 -8 19 2 9 12 8 16 -2 20 -16 6 -107 -81 -107 -101 0 -7 -4 -11 -8
-8 -5 3 -26 -13 -48 -36 -31 -32 -34 -38 -14 -28 25 13 25 13 7 -8 -11 -11
-24 -19 -31 -16 -7 3 -21 -4 -31 -16 -11 -12 -13 -20 -6 -20 7 0 9 -5 5 -11
-5 -8 -10 -6 -16 5 -11 20 -28 21 -28 0 0 -11 -8 -14 -27 -12 -16 2 -27 7 -26
11 1 7 434 466 439 467 1 0 9 -11 18 -25z m611 -75 c-72 -71 -105 -94 -105
-73 0 4 37 45 82 90 56 56 86 79 92 73 7 -7 -15 -36 -69 -90z m911 33 c-3 -3
-19 -1 -35 5 -31 11 -37 6 -31 -23 1 -5 -2 -6 -6 -2 -19 19 -12 63 9 50 6 -4
21 -7 34 -8 18 0 23 5 25 25 1 19 2 17 5 -8 3 -19 2 -36 -1 -39z m-4483 -173
c118 -124 213 -228 211 -232 -9 -15 -54 -9 -54 7 0 20 -17 19 -28 -1 -6 -11
-11 -13 -16 -5 -4 6 -2 11 5 11 7 0 5 8 -6 20 -10 12 -24 19 -31 16 -14 -5
-50 31 -41 41 4 3 7 1 7 -5 0 -7 6 -12 12 -12 7 0 -27 40 -76 89 -54 54 -94
87 -103 84 -10 -4 -11 -8 -2 -20 9 -10 14 -11 19 -2 6 8 9 8 14 0 4 -6 2 -11
-5 -11 -7 0 2 -16 21 -35 21 -22 36 -31 41 -24 4 7 9 8 13 1 3 -6 1 -12 -5
-14 -6 -2 21 -40 61 -83 40 -44 -24 19 -142 139 -164 167 -212 223 -204 232 8
10 24 1 65 -39 49 -46 51 -47 18 -9 -20 23 -37 46 -37 50 0 13 24 33 36 30 7
-2 109 -104 227 -228z m-328 200 c-3 -5 -11 -10 -16 -10 -6 0 -7 5 -4 10 3 6
11 10 16 10 6 0 7 -4 4 -10z m3265 -85 c-46 -46 -86 -82 -88 -80 -3 3 33 43
78 90 46 47 86 82 89 80 3 -3 -33 -44 -79 -90z m-3980 75 c0 -5 -9 -10 -19
-10 -11 0 -26 -3 -35 -6 -9 -3 -16 -1 -16 6 0 6 3 9 8 7 4 -3 16 -1 27 4 28
11 35 11 35 -1z m400 -25 c19 -19 32 -35 29 -35 -3 0 -20 16 -39 35 -19 19
-32 35 -29 35 3 0 20 -16 39 -35z m4040 32 c0 -2 -17 -19 -37 -38 l-38 -34 34
38 c33 34 41 42 41 34z m418 -10 c6 0 12 -5 12 -10 0 -5 -7 -6 -16 -3 -9 3
-24 6 -35 6 -10 0 -19 5 -19 11 0 6 9 8 23 3 12 -4 28 -7 35 -7z m167 3 c-11
-5 -31 -9 -45 -9 -23 0 -23 1 -5 9 11 5 31 9 45 9 23 0 23 -1 5 -9z m-5708
-47 c0 -7 -4 -10 -9 -7 -4 3 -19 -7 -32 -23 l-25 -28 5 25 c3 14 7 30 9 35 4
14 52 12 52 -2z m782 -47 c73 -74 77 -113 5 -46 -25 22 -48 39 -53 36 -8 -6
-49 32 -51 48 -2 8 19 26 30 26 3 0 34 -29 69 -64z m4689 55 c8 -4 13 -12 12
-17 -2 -15 -43 -54 -51 -49 -4 3 -10 1 -14 -5 -3 -5 -11 -10 -18 -10 -6 0 7
19 28 43 l40 42 -42 -39 c-23 -22 -40 -42 -38 -46 2 -4 -9 -19 -24 -34 -20
-19 -31 -24 -36 -16 -5 7 17 37 56 76 68 68 67 68 87 55z m753 -32 l7 -34 -24
28 c-13 16 -28 26 -32 23 -5 -3 -9 0 -9 7 0 7 12 12 26 11 21 -1 27 -7 32 -35z
m-5050 -46 c13 -16 12 -17 -3 -4 -10 7 -18 15 -18 17 0 8 8 3 21 -13z m3839
13 c0 -2 -8 -10 -17 -17 -16 -13 -17 -12 -4 4 13 16 21 21 21 13z m-3800 -19
c0 -2 -10 -12 -22 -23 l-23 -19 19 23 c18 21 26 27 26 19z m3766 -19 c19 -23
19 -23 -2 -5 -11 9 -24 14 -29 10 -4 -5 -5 -2 -1 5 9 16 10 16 32 -10z m-4196
-13 c13 -14 21 -25 18 -25 -2 0 -15 11 -28 25 -13 14 -21 25 -18 25 2 0 15
-11 28 -25z m330 0 c7 -8 8 -15 2 -15 -5 0 -15 7 -22 15 -7 8 -8 15 -2 15 5 0
15 -7 22 -15z m3960 0 c-7 -8 -17 -15 -22 -15 -6 0 -5 7 2 15 7 8 17 15 22 15
6 0 5 -7 -2 -15z m-3849 -12 c13 -16 12 -17 -3 -4 -10 7 -18 15 -18 17 0 8 8
3 21 -13z m3739 13 c0 -2 -8 -10 -17 -17 -16 -13 -17 -12 -4 4 13 16 21 21 21
13z m-3713 -247 c346 -343 603 -603 603 -612 0 -19 -30 -3 -70 38 -25 25 -50
43 -57 41 -6 -3 -10 0 -7 7 2 7 -56 72 -130 146 -84 84 -132 139 -129 148 7
17 -36 65 -53 59 -11 -4 -414 392 -414 408 0 16 37 -18 257 -235z m4793 231
c0 -5 -5 -10 -11 -10 -5 0 -7 5 -4 10 3 6 8 10 11 10 2 0 4 -4 4 -10z m-5180
-10 c0 -5 -5 -10 -11 -10 -5 0 -7 5 -4 10 3 6 8 10 11 10 2 0 4 -4 4 -10z
m4300 2 c0 -14 -396 -403 -403 -396 -11 12 -58 -38 -55 -58 2 -12 -60 -81
-182 -203 -165 -165 -210 -203 -210 -177 0 4 67 75 149 157 82 83 268 270 413
416 237 240 288 286 288 261z m155 -2 c3 -5 1 -10 -4 -10 -6 0 -11 5 -11 10 0
6 2 10 4 10 3 0 8 -4 11 -10z m-4105 -77 c36 -38 114 -119 174 -180 60 -62
106 -113 101 -113 -10 0 -355 341 -355 352 0 18 18 5 80 -59z m55 47 c10 -11
16 -20 13 -20 -3 0 -13 9 -23 20 -10 11 -16 20 -13 20 3 0 13 -9 23 -20z
m3765 12 c0 -11 -345 -352 -356 -352 -4 0 46 55 113 123 66 67 144 148 173
180 50 54 70 68 70 49z m-3952 -195 c100 -101 182 -187 182 -192 0 -5 -38 28
-85 75 -87 87 -119 102 -42 20 l42 -45 -48 45 c-26 24 -45 50 -43 56 6 15
-156 173 -171 167 -13 -5 -45 36 -37 49 3 4 8 8 12 8 4 0 89 -82 190 -183z
m2028 172 c3 -6 -1 -18 -10 -27 -15 -15 -17 -15 -32 0 -19 19 -11 38 16 38 10
0 22 -5 26 -11z m1414 8 c0 -2 -12 -14 -27 -28 l-28 -24 24 28 c23 25 31 32
31 24z m-2839 -34 c13 -16 12 -17 -3 -4 -17 13 -22 21 -14 21 2 0 10 -8 17
-17z m3526 -41 c-32 -32 -54 -62 -50 -67 5 -4 3 -5 -4 -1 -12 6 -28 -10 -28
-29 0 -5 -4 -10 -10 -10 -17 0 -36 -16 -30 -26 3 -5 -11 -26 -32 -47 -21 -21
-26 -24 -10 -7 15 17 27 35 27 40 0 5 -38 -28 -85 -75 -47 -47 -85 -80 -85
-75 0 12 342 355 354 355 6 0 -15 -26 -47 -58z m-2165 11 l38 -37 38 36 c31
30 42 36 67 31 59 -12 57 -24 -17 -106 -38 -42 -78 -77 -88 -77 -10 0 -50 35
-88 77 -73 81 -76 95 -21 106 13 2 26 5 29 6 2 0 21 -16 42 -36z m-205 11 c-3
-3 -12 -4 -19 -1 -8 3 -5 6 6 6 11 1 17 -2 13 -5z m510 0 c-3 -3 -12 -4 -19
-1 -8 3 -5 6 6 6 11 1 17 -2 13 -5z m-1527 -124 c0 -5 -2 -10 -4 -10 -3 0 -8
5 -11 10 -3 6 -1 10 4 10 6 0 11 -4 11 -10z m2540 6 c0 -3 -4 -8 -10 -11 -5
-3 -10 -1 -10 4 0 6 5 11 10 11 6 0 10 -2 10 -4z m-1936 -39 c31 -40 32 -47 8
-47 -10 0 -31 14 -47 30 -25 26 -27 32 -15 40 23 15 27 13 54 -23z m1366 23
c12 -8 10 -14 -15 -40 -27 -28 -65 -41 -65 -21 0 12 49 71 58 71 4 0 14 -5 22
-10z m-1397 -147 c67 -71 168 -176 225 -234 118 -122 120 -110 -23 -128 l-70
-9 -210 216 c-115 118 -210 220 -210 225 0 6 36 20 80 32 44 13 82 23 84 24 2
0 58 -56 124 -126z m1592 99 c39 -10 70 -23 70 -28 0 -6 -94 -108 -210 -227
l-210 -216 -93 14 c-51 7 -95 15 -97 17 -1 1 67 75 151 163 85 88 183 190 217
227 37 41 70 68 82 68 11 0 52 -9 90 -18z m-1219 -340 c65 -69 75 -91 43 -92
-3 0 -86 84 -184 187 -158 167 -175 188 -154 193 19 5 39 -13 123 -103 56 -59
133 -143 172 -185z m894 229 c-27 -31 -107 -116 -178 -190 -103 -108 -131
-132 -145 -125 -13 8 13 40 153 189 93 99 170 183 170 186 0 3 11 4 25 1 25
-4 24 -5 -25 -61z m540 41 c0 -3 -10 -17 -22 -31 -13 -14 -6 -10 15 8 74 69
35 14 -55 -76 -51 -51 -89 -95 -86 -98 3 -3 43 34 88 82 46 48 81 83 79 76 -6
-18 -359 -374 -359 -362 0 6 -4 7 -10 4 -14 -9 -13 8 2 23 9 9 5 9 -14 0 -27
-13 -31 -27 -13 -40 5 -4 1 -7 -10 -6 -11 0 -37 -3 -59 -7 -27 -5 -37 -4 -35
3 2 6 98 110 213 231 204 214 209 219 237 209 16 -5 29 -13 29 -16z m-2196
-97 c54 -59 101 -103 104 -100 3 3 -35 47 -86 98 -51 51 -92 95 -92 97 0 3 24
6 53 6 l52 2 190 -200 c235 -247 218 -228 212 -234 -3 -3 -24 0 -46 6 -29 8
-41 16 -39 27 4 22 -20 29 -28 8 -6 -14 -9 -13 -30 6 -13 12 -24 18 -24 12 0
-5 -82 74 -182 177 -101 103 -190 189 -198 192 -13 5 -13 6 1 7 8 0 59 -46
113 -104z m2241 76 c-3 -6 -11 -11 -17 -11 -6 0 -6 6 2 15 14 17 26 13 15 -4z
m737 -4 c-12 -13 -20 -27 -17 -30 3 -4 2 -5 -2 -2 -3 3 -13 -1 -22 -7 -9 -7 0
5 18 25 19 20 37 37 40 37 2 0 -5 -10 -17 -23z m-3377 -125 c-7 -7 -55 39 -55
52 0 5 13 -3 30 -19 16 -16 28 -31 25 -33z m2985 23 c-13 -14 -28 -25 -34 -25
-5 0 3 13 19 30 16 16 31 28 33 25 3 -3 -5 -16 -18 -30z m230 -13 c11 -5 -31
-52 -159 -177 l-175 -170 154 162 c84 90 158 165 164 167 7 3 5 9 -4 15 -17
12 -4 14 20 3z m-3277 -207 c98 -102 174 -185 167 -185 -6 0 -13 7 -17 16 -3
8 -12 13 -20 10 -8 -4 -11 -1 -7 5 3 6 -70 87 -162 180 -93 94 -162 168 -154
164 8 -3 95 -89 193 -190z m-183 150 c19 -19 32 -35 29 -35 -3 0 -20 16 -39
35 -19 19 -32 35 -29 35 3 0 20 -16 39 -35z m3480 32 c0 -2 -17 -19 -37 -38
l-38 -34 34 38 c33 34 41 42 41 34z m-2915 -315 c-8 -8 -285 278 -285 293 1 6
66 -57 146 -138 80 -82 143 -152 139 -155z m2554 241 c-146 -156 -239 -247
-245 -240 -4 3 58 72 136 152 79 79 146 142 149 140 2 -3 -15 -27 -40 -52z
m-3039 -38 c19 -19 32 -35 29 -35 -3 0 -20 16 -39 35 -19 19 -32 35 -29 35 3
0 20 -16 39 -35z m3320 32 c0 -2 -17 -19 -37 -38 l-38 -34 34 38 c33 34 41 42
41 34z m-2850 -42 c13 -14 19 -25 14 -25 -8 1 -50 50 -41 50 2 0 14 -11 27
-25z m2340 -15 c-18 -23 -35 -38 -38 -35 -5 5 56 75 66 75 2 0 -11 -18 -28
-40z m18 -42 c-8 -12 -21 -24 -29 -26 -8 -3 -3 7 10 22 30 32 39 34 19 4z
m412 19 c0 -2 -12 -14 -27 -28 l-28 -24 24 28 c23 25 31 32 31 24z m-3169 -24
c13 -16 12 -17 -3 -4 -17 13 -22 21 -14 21 2 0 10 -8 17 -17z m2689 -36 c-8
-9 -9 -7 -4 8 7 19 7 19 -13 3 -30 -27 -40 -21 -13 7 21 22 25 24 33 9 6 -10
5 -20 -3 -27z m-10 -42 c-24 -25 -46 -45 -49 -45 -3 0 15 20 39 45 24 25 46
45 49 45 3 0 -15 -20 -39 -45z m-2205 -5 c21 -22 37 -40 34 -40 -3 0 -23 18
-44 40 -21 22 -37 40 -34 40 3 0 23 -18 44 -40z m61 -2 l29 -33 -32 29 c-18
17 -33 31 -33 33 0 8 8 1 36 -29z m2104 29 c0 -2 -15 -16 -32 -33 l-33 -29 29
33 c28 30 36 37 36 29z m410 -42 c-24 -25 -46 -45 -49 -45 -3 0 15 20 39 45
24 25 46 45 49 45 3 0 -15 -20 -39 -45z m-2540 10 c13 -14 21 -25 18 -25 -2 0
-15 11 -28 25 -13 14 -21 25 -18 25 2 0 15 -11 28 -25z m2150 22 c0 -2 -12
-14 -27 -28 l-28 -24 24 28 c23 25 31 32 31 24z m-2544 -49 l29 -33 -32 29
c-31 28 -38 36 -30 36 2 0 16 -15 33 -32z m1353 -32 c38 -39 40 -44 23 -48
-14 -4 -32 6 -61 36 -45 46 -49 56 -23 56 10 0 37 -20 61 -44z m281 37 c0 -4
-18 -26 -41 -49 -29 -30 -47 -40 -61 -36 -17 4 -15 9 23 48 38 39 79 58 79 37z
m-317 -145 l137 -143 138 143 137 142 89 -10 c50 -6 96 -8 103 -5 26 9 0 -21
-129 -153 l-126 -130 -213 0 -213 0 -121 126 c-66 68 -121 130 -123 137 -2 9
17 15 65 20 37 4 73 8 78 10 30 10 52 -6 178 -137z m-493 103 c-14 -4 -20 -10
-14 -13 6 -4 27 -2 48 4 l36 11 142 -148 c143 -149 201 -215 195 -222 -8 -8
-97 39 -97 51 0 8 -16 23 -35 35 -20 11 -38 27 -41 35 -3 7 -24 28 -47 46
l-42 33 48 -49 c26 -27 47 -54 47 -59 0 -5 -51 40 -112 100 -62 61 -95 91 -73
68 21 -24 36 -45 33 -48 -3 -3 -34 27 -69 67 -35 40 -53 64 -41 54 12 -11 22
-14 22 -9 0 6 -7 16 -15 23 -19 16 -10 30 18 29 20 -1 20 -2 -3 -8z m1290 0
c0 -6 -4 -13 -10 -16 -5 -3 -10 -11 -10 -17 0 -6 7 -5 18 3 9 7 -5 -10 -32
-38 -27 -29 -54 -51 -60 -50 -6 1 -10 -6 -8 -15 1 -9 -3 -20 -9 -24 -9 -5 -10
-2 -5 12 4 10 -29 -17 -74 -61 -44 -44 -80 -76 -80 -71 0 18 214 226 221 215
4 -7 9 -8 13 -1 3 5 -1 13 -10 16 -11 4 -49 -27 -127 -105 -96 -96 -146 -135
-168 -131 -3 1 -4 -10 -2 -23 4 -20 -2 -26 -42 -44 -26 -12 -49 -21 -52 -21
-8 0 16 36 44 65 16 17 87 91 158 165 78 82 138 137 154 141 41 10 81 10 81 0z
m755 -1 c3 -6 -1 -7 -9 -4 -10 4 -16 1 -16 -7 0 -7 -3 -10 -6 -6 -7 7 4 27 16
27 5 0 12 -4 15 -10z m-2092 -7 c-7 -2 -19 -2 -25 0 -7 3 -2 5 12 5 14 0 19
-2 13 -5z m1380 0 c-7 -2 -19 -2 -25 0 -7 3 -2 5 12 5 14 0 19 -2 13 -5z
m-1612 -50 c13 -16 12 -17 -3 -4 -17 13 -22 21 -14 21 2 0 10 -8 17 -17z
m1839 13 c0 -2 -8 -10 -17 -17 -16 -13 -17 -12 -4 4 13 16 21 21 21 13z
m-1925 -95 c-7 -6 -85 70 -85 83 0 6 20 -10 45 -34 24 -24 42 -46 40 -49z m51
57 l29 -33 -32 29 c-31 28 -38 36 -30 36 2 0 16 -15 33 -32z m19 12 c10 -11
16 -20 13 -20 -3 0 -13 9 -23 20 -10 11 -16 20 -13 20 3 0 13 -9 23 -20z
m1875 17 c0 -2 -10 -12 -22 -23 l-23 -19 19 23 c18 21 26 27 26 19z m30 0 c0
-2 -15 -16 -32 -33 l-33 -29 29 33 c28 30 36 37 36 29z m65 -47 c-22 -22 -44
-40 -49 -40 -6 0 10 20 34 45 24 24 46 42 49 40 2 -3 -13 -23 -34 -45z m-1984
-209 c-22 -5 -245 230 -228 241 8 5 53 -36 128 -115 83 -87 112 -123 100 -126z
m2110 234 c-2 -22 -213 -235 -232 -235 -15 0 10 33 98 125 108 114 136 137
134 110z m-1121 -12 c-1 -5 -12 -21 -25 -38 l-25 -30 -25 30 c-13 17 -24 33
-25 38 0 4 23 7 50 7 28 0 50 -3 50 -7z m-1250 -118 c0 5 -23 33 -52 62 -29
29 -50 53 -47 53 2 0 40 -37 84 -82 44 -45 68 -72 54 -60 -30 26 -47 29 -28 5
7 -10 -22 16 -64 57 -42 41 -77 77 -77 79 0 3 29 -24 65 -59 36 -35 65 -60 65
-55z m2452 62 c-76 -77 -64 -83 15 -7 37 36 6 2 -68 -76 -74 -78 -137 -141
-140 -140 -3 1 -13 -5 -22 -13 -31 -25 -17 5 17 38 23 23 35 29 38 19 3 -8 9
-5 17 11 12 22 12 23 -5 17 -11 -4 28 41 86 99 57 58 107 105 109 105 3 0 -18
-24 -47 -53z m-2062 -12 c30 -30 52 -55 49 -55 -2 0 -29 25 -59 55 -30 30 -52
55 -49 55 2 0 29 -25 59 -55z m1680 52 c0 -1 -26 -27 -57 -57 l-58 -55 55 58
c50 53 60 62 60 54z m-1660 -104 c0 -8 -9 0 -50 45 l-45 47 48 -45 c26 -24 47
-45 47 -47z m1630 42 c-24 -25 -46 -45 -49 -45 -3 0 15 20 39 45 24 25 46 45
49 45 3 0 -15 -20 -39 -45z m-2129 8 c13 -16 12 -17 -3 -4 -10 7 -18 15 -18
17 0 8 8 3 21 -13z m489 -77 c-3 -2 -23 17 -44 42 l-39 47 43 -42 c24 -23 42
-44 40 -47z m1644 39 c-21 -24 -40 -42 -43 -40 -4 5 68 85 77 85 1 0 -14 -20
-34 -45z m-1934 -42 l75 -78 -77 75 c-72 69 -83 80 -75 80 1 0 36 -35 77 -77z
m2190 2 c-41 -41 -77 -75 -79 -75 -3 0 28 34 69 75 41 41 77 75 79 75 3 0 -28
-34 -69 -75z m-1990 0 c35 -36 58 -65 50 -65 -16 1 -138 130 -123 130 5 0 38
-29 73 -65z m420 10 c30 -30 52 -55 49 -55 -2 0 -29 25 -59 55 -30 30 -52 55
-49 55 2 0 29 -25 59 -55z m1000 52 c0 -1 -26 -27 -57 -57 l-58 -55 55 58 c50
53 60 62 60 54z m404 -39 c-21 -24 -47 -53 -58 -65 -11 -13 -27 -23 -35 -23
-9 0 12 28 49 65 72 72 104 89 44 23z m-2149 -18 c10 -11 16 -20 13 -20 -3 0
-13 9 -23 20 -10 11 -16 20 -13 20 3 0 13 -9 23 -20z m66 -37 c13 -16 12 -17
-3 -4 -17 13 -22 21 -14 21 2 0 10 -8 17 -17z m44 -13 c18 -20 18 -21 1 -14
-16 6 -17 5 -6 -16 8 -15 15 -19 19 -11 5 7 17 1 35 -18 22 -23 24 -29 12 -34
-9 -4 -15 -1 -13 6 1 7 -4 11 -10 10 -7 -2 -12 3 -10 10 1 6 -3 11 -10 10 -15
-3 -33 20 -39 51 -5 31 -3 32 21 6z m-406 -281 c-12 -8 -12 -11 1 -19 19 -13
33 -13 25 0 -3 6 3 10 14 10 12 0 21 -6 21 -13 0 -10 -16 -14 -50 -16 -27 -1
-50 1 -50 4 0 14 45 65 49 54 2 -6 -3 -15 -10 -20z m111 7 c0 -8 9 -16 20 -19
11 -3 20 -10 20 -16 0 -28 -45 3 -55 38 -5 16 -4 21 4 17 6 -4 11 -13 11 -20z
m2950 -40 c0 -3 -15 -6 -32 -6 -32 1 -32 1 -13 16 14 11 16 18 8 21 -7 3 -13
11 -13 20 0 9 9 3 25 -15 14 -17 25 -33 25 -36z m-140 30 c0 -10 -32 -36 -43
-36 -7 1 -1 10 12 20 23 20 31 24 31 16z m70 -16 c0 -5 -7 -10 -15 -10 -8 0
-15 5 -15 10 0 6 7 10 15 10 8 0 15 -4 15 -10z m-2920 -40 c0 -5 -5 -10 -11
-10 -5 0 -7 5 -4 10 3 6 8 10 11 10 2 0 4 -4 4 -10z m2863 3 c-13 -2 -33 -2
-45 0 -13 2 -3 4 22 4 25 0 35 -2 23 -4z"/>
<path d="M3225 6908 l-50 -53 53 50 c48 46 57 55 49 55 -1 0 -25 -24 -52 -52z"/>
<path d="M5529 6941 c6 -10 30 -34 53 -52 l43 -32 -50 51 c-54 57 -61 62 -46
33z"/>
<path d="M3803 6728 c-23 -30 -24 -41 -2 -21 12 12 20 25 17 28 -3 3 -10 0
-15 -7z"/>
<path d="M3475 6418 l-50 -53 53 50 c48 46 57 55 49 55 -1 0 -25 -24 -52 -52z"/>
<path d="M3340 6243 l-65 -68 68 65 c37 35 67 66 67 67 0 8 -10 -2 -70 -64z"/>
<path d="M5179 6528 c13 -15 21 -33 18 -41 -3 -8 5 -24 19 -36 26 -22 39 -28
29 -11 -13 21 15 9 34 -16 11 -14 32 -27 48 -30 l28 -5 -40 40 c-41 43 -64 58
-27 18 12 -13 22 -27 22 -32 0 -5 -35 24 -77 65 -43 41 -67 63 -54 48z m59
-66 c2 -7 -2 -10 -12 -6 -9 3 -16 11 -16 16 0 13 23 5 28 -10z"/>
<path d="M2114 5788 l-29 -33 33 29 c17 17 32 31 32 33 0 8 -8 1 -36 -29z"/>
<path d="M2029 5733 l-24 -28 28 24 c25 23 32 31 24 31 -2 0 -14 -12 -28 -27z"/>
<path d="M6670 5795 c13 -14 26 -25 28 -25 3 0 -5 11 -18 25 -13 14 -26 25
-28 25 -3 0 5 -11 18 -25z"/>
<path d="M6730 5767 c0 -2 15 -16 33 -33 l32 -29 -29 33 c-28 30 -36 37 -36
29z"/>
<path d="M2624 5538 c-16 -18 -21 -26 -11 -18 16 12 20 12 29 -1 8 -11 9 -10
4 5 -4 10 -1 25 5 32 23 27 2 13 -27 -18z"/>
<path d="M6151 5553 c6 -10 23 -27 37 -37 21 -15 20 -12 -7 17 -38 41 -47 46
-30 20z"/>
<path d="M3510 4400 c0 -5 5 -10 10 -10 6 0 10 5 10 10 0 6 -4 10 -10 10 -5 0
-10 -4 -10 -10z"/>
<path d="M5270 4400 c0 -5 5 -10 10 -10 6 0 10 5 10 10 0 6 -4 10 -10 10 -5 0
-10 -4 -10 -10z"/>
<path d="M4930 3315 c-13 -14 -19 -25 -14 -25 8 1 50 50 41 50 -2 0 -14 -11
-27 -25z"/>
<path d="M2619 3267 c33 -35 56 -52 32 -23 -6 7 -9 22 -5 32 5 15 4 16 -4 4
-9 -12 -14 -11 -34 5 -13 11 -7 3 11 -18z"/>
<path d="M6187 3283 c-16 -16 -19 -16 -28 -3 -9 12 -10 12 -5 -4 4 -10 1 -26
-6 -35 -7 -9 5 0 25 18 20 19 37 36 37 38 0 6 -6 2 -23 -14z"/>
<path d="M2797 3085 c34 -38 72 -80 86 -93 22 -21 25 -22 31 -6 5 12 -2 26
-19 43 -17 17 -25 21 -25 11 0 -8 -30 15 -67 50 l-67 65 61 -70z m100 -70 c8
-9 13 -18 11 -21 -3 -2 -13 5 -23 16 -21 23 -11 27 12 5z"/>
<path d="M2017 3096 c-3 -8 4 -22 16 -33 l22 -18 -19 23 c-37 43 -1 22 59 -35
l60 -58 -65 68 c-35 37 -65 67 -66 67 -1 0 -4 -6 -7 -14z"/>
<path d="M6764 3068 l-19 -23 23 19 c12 11 22 21 22 23 0 8 -8 2 -26 -19z"/>
<path d="M6669 3003 l-24 -28 28 24 c15 14 27 26 27 28 0 8 -8 1 -31 -24z"/>
<path d="M2215 2910 c10 -11 20 -20 23 -20 3 0 -3 9 -13 20 -10 11 -20 20 -23
20 -3 0 3 -9 13 -20z"/>
<path d="M5449 2553 c-13 -16 -12 -17 4 -4 9 7 17 15 17 17 0 8 -8 3 -21 -13z"/>
<path d="M5270 2333 l-95 -98 98 95 c53 52 97 96 97 97 0 8 -12 -4 -100 -94z"/>
<path d="M5204 2298 l-19 -23 23 19 c12 11 22 21 22 23 0 8 -8 2 -26 -19z"/>
<path d="M3345 2550 c38 -38 72 -70 74 -70 3 0 -26 32 -64 70 -38 39 -72 70
-74 70 -3 0 26 -31 64 -70z"/>
<path d="M3505 2350 c44 -44 82 -80 85 -80 2 0 -31 36 -75 80 -44 44 -82 80
-85 80 -2 0 31 -36 75 -80z"/>
<path d="M3520 2365 c13 -14 26 -25 28 -25 3 0 -5 11 -18 25 -13 14 -26 25
-28 25 -3 0 5 -11 18 -25z"/>
<path d="M3600 2285 c19 -19 36 -35 39 -35 3 0 -10 16 -29 35 -19 19 -36 35
-39 35 -3 0 10 -16 29 -35z"/>
<path d="M3786 2095 c4 -9 16 -21 28 -27 19 -10 19 -9 -3 16 -28 30 -33 32
-25 11z"/>
<path d="M5000 2126 c0 -10 28 -13 41 -5 10 6 7 9 -13 9 -16 0 -28 -2 -28 -4z"/>
<path d="M4984 2038 l-19 -23 23 19 c12 11 22 21 22 23 0 8 -8 2 -26 -19z"/>
<path d="M5551 1885 c-44 -50 -38 -56 9 -10 43 42 45 45 31 45 -5 0 -23 -16
-40 -35z"/>
</g>
</svg>
